<?xml version="1.0" encoding="utf-8"?>
<!-- Generator: Adobe Illustrator 15.0.0, SVG Export Plug-In . SVG Version: 6.00 Build 0)  -->
<!DOCTYPE svg PUBLIC "-//W3C//DTD SVG 1.1//EN" "http://www.w3.org/Graphics/SVG/1.1/DTD/svg11.dtd">
<svg version="1.1" id="Layer_1" xmlns="http://www.w3.org/2000/svg" xmlns:xlink="http://www.w3.org/1999/xlink" x="0px" y="0px"
	 width="74px" height="77px" viewBox="0 0 74 77" enable-background="new 0 0 74 77" xml:space="preserve">
<path fill-rule="evenodd" clip-rule="evenodd" d="M211.52-1044.02c-14.908,10.37-29.279,30.437-29.279,56.16
	c0,44.25,37.924,65.108,40.8,108c1.388,20.693-7.973,40.026-19.68,54.72c-5.526,0.086-10.254-0.626-14.4-1.92
	c-0.34-3.485,2.529-5.792,3.84-8.64c4.329-9.406,8.641-20.593,8.641-34.56c0-42.879-40.378-59.373-40.801-103.2
	C160.31-1007.764,181.529-1034.303,211.52-1044.02z"/>
<path fill-rule="evenodd" clip-rule="evenodd" d="M109.28-958.1c0.467,0.013,0.372,0.587,0.479,0.96
	c-2.844,31.13,9.077,48.939,23.521,64.8c12.197,13.395,29.278,26.423,26.399,53.76c-30.621-16.695-56.567-47.706-53.76-98.4
	C106.338-944.524,108.029-950.584,109.28-958.1z"/>
<path fill-rule="evenodd" clip-rule="evenodd" d="M224.48-938.42c28.64-1.12,59.359-0.16,88.8-0.48
	c4.951,37.642-9.324,66.363-29.761,84.48c-17.883,15.854-40.653,28.155-69.6,29.76c-0.718-0.852,1.913-3.655,3.36-5.28
	c10.668-11.985,22.446-28.571,24-49.92c1.792-24.629-7.955-40.821-16.32-57.6C225.038-938.018,224.854-938.314,224.48-938.42z"/>
<path fill-rule="evenodd" clip-rule="evenodd" d="M150.56-817.94c1.595,4.198,1.595,15.001,0,19.2
	c-2.937-1.676-2.532-5.583-3.84-8.16c-2.267-4.467-7.873-9.292-14.88-9.6c-8.728-0.383-17.196,4.81-15.84,15.36
	c2.457,19.116,36.987,19.839,39.84,42.239c2.796,21.955-20.384,32.657-42.24,22.08c-3.021-0.141-1.78,3.979-5.279,3.36
	c0.318-7.201-0.639-15.679,0.479-22.08c3.295,2.143,2.209,5.819,3.36,8.64c2.652,6.501,10.029,11.367,17.76,11.521
	c12.78,0.254,19.912-9.566,16.32-20.16c-5.039-14.858-34.551-17.335-37.44-37.44c-3.229-22.47,18.405-31.262,37.92-22.56
	C149.557-814.783,148.082-818.338,150.56-817.94z"/>
<path fill-rule="evenodd" clip-rule="evenodd" d="M-244-767.06c0-2.561,0-5.12,0-7.681c3.552-25.094,19.385-43.185,44.64-41.76
	c6.248,0.353,13.975,4.761,19.2,4.32c2.737-0.23,4.202-3.159,7.2-2.88c-0.669,8.351,1.175,16.742,0,24
	c-2.566-0.448-2.367-3.167-2.88-4.32c-4.098-9.22-11.638-16.948-22.56-18.24c-36.982-4.373-40.288,49.729-23.52,67.68
	c4.866,5.21,15.239,10.405,24,10.561c4.472,0.079,9.656-0.558,12-2.88c2.896-2.869,4.835-20.899,0-25.44
	c-2.666-2.504-6.301-0.527-9.6-2.88c0.705-2.648,4.79-1.409,6.72-1.439c8.454-0.136,17.644,0.102,25.44,0
	c2.23-3.731,3.074-6.973,5.76-10.08c11.787-13.641,41.446-9.842,40.8,12.479c-12.48,0-24.96,0-37.44,0
	c-0.857,16.021,9.155,32.536,24,29.28c4.898-1.074,8.12-5.399,11.52-7.2c-0.384,5.837-7.01,9.291-12.48,10.08
	c-22.497,3.243-35.457-12.14-32.64-32.16c-13.279,0.001-7.292,19.268-8.64,31.2C-206.041-727.312-242.004-734.995-244-767.06z
	 M-152.8-768.02c9.28,0,18.56,0,27.84,0C-122.576-788.614-155.14-788.416-152.8-768.02z"/>
<path fill-rule="evenodd" clip-rule="evenodd" d="M170.72-802.58c0.48,0,0.96,0,1.44,0c2.211,3.869,0.342,11.818,0.96,17.28
	c2.289,0.863,6.089,0.479,9.6,0.479c3.033,0,7.398-1.143,8.16,1.44c-0.864,2.594-5.104,1.439-8.16,1.439c-3.218,0-6.905,0-9.6,0
	c2.588,11.367-4.854,36.578,3.36,42.24c3.894,2.686,11.712,1.155,14.88-2.88c-3.562-18.303,16.721-16.864,27.359-22.56
	c2.616-12.662-8.993-20.486-18.239-14.4c-3.688,2.427-4.672,6.608-7.681,8.64c-1.572-17.63,29.819-20.868,35.04-4.8
	c1.866,5.741,0.96,15.551,0.96,23.521c0,4.75-1.334,10.396,1.92,13.439c3.54,1.811,3.018-4.248,5.761-4.8
	c4.728,9.586-16.059,14.828-17.28,3.84c-4.668,7.148-22.843,9.259-26.4-0.479c-6.679,8.808-26.498,10.116-29.28-3.36
	c-2.313-11.21,1.709-24.713,0-37.92c-2.161-1.358-7.457,0.418-9.6-0.96c0.271-3.353,3.869-3.734,5.76-5.28
	c4.339-3.548,8.124-9.111,10.561-14.88C170.4-802.58,170.56-802.58,170.72-802.58z M203.36-754.58
	c-4.594,5.663-1.314,14.474,4.319,16.32c5.801,1.9,9.478-2.938,12.48-6.24c0-5.76,0-11.52,0-17.28c-0.32,0-0.641,0-0.96,0
	C214.839-758.659,207.478-759.656,203.36-754.58z"/>
<path fill-rule="evenodd" clip-rule="evenodd" d="M248.48-802.58c0.479,0,0.96,0,1.439,0c2.212,4.027,0.341,12.14,0.96,17.76
	c2.695,0,6.382,0,9.601,0c3.055,0,7.295-1.154,8.159,1.44c-0.864,2.594-5.104,1.439-8.159,1.439c-3.219,0-6.905,0-9.601,0
	c2.518,11.572-4.747,36.534,3.36,42.24c4.294,3.022,11.718,0.664,15.359-2.88c-13.052-18.718-0.26-46.598,23.521-43.68
	c10.588,1.299,18.051,8.31,18.72,20.64c-12.479,0-24.96,0-37.439,0c-0.902,13.866,6.878,29.673,20.159,29.76
	c6.146,0.041,10.536-4.668,14.4-6.72c-1.779,10.407-20.695,11.647-30.72,6.72c-2.896-1.423-5.051-4.148-7.2-5.279
	c-5.628,9.659-25.314,11.15-29.28-0.96c-3.635-11.103,1.696-25.813-0.479-39.36c-2.161-1.358-7.458,0.418-9.601-0.96
	c-0.002-3.257,3.591-3.454,5.28-4.8c4.513-3.598,8.528-9.395,11.04-15.36C248.16-802.58,248.32-802.58,248.48-802.58z
	 M278.24-779.54c-2.477,3.086-2.781,6.68-3.84,11.521c9.279,0,18.56,0,27.84,0C304.499-782.742,285.809-788.973,278.24-779.54z"/>
<path fill-rule="evenodd" clip-rule="evenodd" d="M-90.88-786.26c16.17-2.275,30.559,7.356,32.64,21.12
	c6.444,42.614-61.727,42.058-55.2-0.48C-111.815-776.208-101.981-784.698-90.88-786.26z M-88.96-736.34
	c27.839,6.68,29.873-51.757,1.44-47.521C-107.399-780.897-106.832-740.628-88.96-736.34z"/>
<path fill-rule="evenodd" clip-rule="evenodd" d="M-41.44-786.74c1.114,2.566,0.165,7.195,0.48,10.561
	c6.809-4.377,16.599-15.111,26.88-7.2c-1.392,3.088-2.68,6.28-3.84,9.6c-6.182-5.488-19.106-5.601-23.04,1.92
	c1.865,12.777-5.544,36.209,8.64,36c-0.381,2.607-4.136,1.379-6.24,1.44c-5.976,0.174-15.846,0.634-20.64-0.96
	c0.221-2.819,5.295-0.785,6.72-2.4c1.984-6.178,3.383-29.222,1.92-38.88c-0.829-5.471-4.408-5.97-10.08-6.72
	c0.68-2.83,5.315-2.185,8.16-2.4c3.428-0.26,7.109-0.43,10.08-0.479C-41.842-786.182-41.546-786.366-41.44-786.74z"/>
<path fill-rule="evenodd" clip-rule="evenodd" d="M46.88-786.74c0,6.361,0,15.088,0,24c0,8.222-1.616,18.61,0.48,23.04
	c1.683,3.558,5.487,1.959,8.159,3.84c-0.392,2.614-4.2,1.376-6.239,1.44c-6.252,0.198-16.526,0.616-21.6-0.96
	c0.032-3.008,5.53-0.55,7.2-1.92c3.771-4.359,2.4-13.829,2.4-22.08c0-8.26,1.427-17.727-2.4-22.08
	c-3.593-0.752-9.513-0.866-12.48,0.479c0.418,2.913,3.463,5.627,4.32,8.16c2.971,8.787,0.019,17.546-5.76,22.561
	c-6.59,5.718-29.417,4.903-28.8,15.359c0.277,4.689,10.449,6.406,16.8,7.681c11.353,2.277,32.388,4.514,25.44,22.08
	c-1.304,3.297-5.537,7.579-8.64,9.6c-11.579,7.541-38.531,8.135-45.12-3.84c-6.538-11.881,5.262-18.035,14.88-22.08
	c-4.72-2.433-10.206-3.245-11.04-8.64c-1.431-9.253,9.17-12.596,15.84-15.841c-20.182-2.781-22.682-37.348,2.4-40.319
	C16.317-787.871,33.326-783.724,46.88-786.74z M8.48-747.86c14.644-1.556,16.224-39.584-3.84-35.52
	C-10.191-780.376-9.414-745.958,8.48-747.86z M-13.6-708.5c-0.146,9.656,14.976,13.738,26.4,13.44
	c9.071-0.237,20.689-4.692,18.24-14.4c-1.715-6.798-24.807-11.295-30.72-10.56C-6.066-719.226-13.487-715.933-13.6-708.5z"/>
<path fill-rule="evenodd" clip-rule="evenodd" d="M96.32-738.26c4.059,0.379,2.673-4.687,5.76-5.28
	c2.06,5.772-3.964,11.692-12.48,10.08c-1.936-1.744-4.205-3.155-4.8-6.24c-3.269,1.378-5.161,4.733-8.64,5.76
	c-7.964,2.352-17.105-1.593-19.2-7.68c-6.149-17.87,16.963-18.367,27.36-23.52c2.744-14.846-11.187-20.321-19.681-13.44
	c-2.882,2.335-3.648,6.197-6.239,7.68c-1.668-17.3,28.459-20.59,34.56-5.76C97.199-766.354,91.102-748.658,96.32-738.26z
	 M84.8-761.78c-3.277,2.068-13.499,3.421-16.319,7.681c-8.862,13.381,12.253,22.338,16.8,10.08
	C84.962-749.781,85.918-756.817,84.8-761.78z"/>
<path fill-rule="evenodd" clip-rule="evenodd" fill="#FFFFFF" d="M-87.52-783.86c28.433-4.236,26.399,54.2-1.44,47.521
	C-106.832-740.628-107.399-780.897-87.52-783.86z"/>
<path fill-rule="evenodd" clip-rule="evenodd" fill="#FFFFFF" d="M-124.96-768.02c-9.28,0-18.56,0-27.84,0
	C-155.14-788.416-122.576-788.614-124.96-768.02z"/>
<path fill-rule="evenodd" clip-rule="evenodd" fill="#FFFFFF" d="M4.64-783.38c20.063-4.064,18.483,33.964,3.84,35.52
	C-9.414-745.958-10.191-780.376,4.64-783.38z"/>
<path fill-rule="evenodd" clip-rule="evenodd" fill="#FFFFFF" d="M302.24-768.02c-9.28,0-18.561,0-27.84,0
	c1.059-4.841,1.363-8.435,3.84-11.521C285.809-788.973,304.499-782.742,302.24-768.02z"/>
<path fill-rule="evenodd" clip-rule="evenodd" fill="#FFFFFF" d="M85.28-744.02c-4.547,12.258-25.662,3.301-16.8-10.08
	c2.82-4.26,13.042-5.612,16.319-7.681C85.918-756.817,84.962-749.781,85.28-744.02z"/>
<path fill-rule="evenodd" clip-rule="evenodd" fill="#FFFFFF" d="M219.2-761.78c0.319,0,0.64,0,0.96,0c0,5.761,0,11.521,0,17.28
	c-3.003,3.302-6.68,8.141-12.48,6.24c-5.634-1.847-8.913-10.657-4.319-16.32C207.478-759.656,214.839-758.659,219.2-761.78z"/>
<path fill-rule="evenodd" clip-rule="evenodd" fill="#FFFFFF" d="M0.32-720.02c5.913-0.735,29.005,3.762,30.72,10.56
	c2.449,9.708-9.169,14.163-18.24,14.4c-11.424,0.298-26.546-3.784-26.4-13.44C-13.487-715.933-6.066-719.226,0.32-720.02z"/>
<path fill-rule="evenodd" clip-rule="evenodd" d="M108.32-717.62c67.84,0,135.679,0,203.52,0c1.304,0.502,0.267,9.403,0.48,10.561
	c-68.16,0-136.321,0-204.48,0c0-3.04,0-6.08,0-9.12C107.799-716.861,107.761-717.539,108.32-717.62z"/>
<path fill-rule="evenodd" clip-rule="evenodd" d="M-112-709.46c-1.432,2.462-5.111,1.723-6.72,3.36
	c-4.328,4.403-2.4,18.556-2.4,30.72c0,23.766-1.893,44.273,21.12,44.16c10.41-0.052,17.934-5.763,23.52-13.92
	c-1.348-14.501,1.774-39.533,0-53.761c-0.711-5.698-3.954-8.877-9.12-10.08c0.596-2.628,4.463-1.403,6.72-1.439
	c6.625-0.105,17.104-0.686,22.56,0.96c-0.649,2.547-3.237,1.444-4.32,1.92c-3.436,1.508-4.785,4.778-5.28,11.04
	c-1.193,15.108-0.959,39.93,0,54.24c0.481,7.179,4.246,15.79,13.44,11.52c4.695-2.181,3.36-14.584,3.36-23.04
	c0-5.987,1.492-17.385-1.44-20.64c-1.682-1.866-4.734-1.011-7.2-2.88c1.297-2.405,5.565-1.657,8.64-1.92
	c3.318-0.284,6.847-0.509,9.6-0.96c0,3.199,0,6.399,0,9.6c4.726-6.484,19.865-13.483,29.28-6.24c10.68,8.217,3.458,30.35,7.68,45.12
	c3.16,2.272,11.361,2.046,13.44-0.96c-1.623-7.615,3.864-32.588,0-40.32c-1.914-3.83-6.079-1.629-9.12-3.84
	c1.496-2.617,6.024-1.611,9.12-1.92c3.489-0.348,6.885-1.158,10.08-0.96c0,6.016,0,15.236,0,24.48c0,8.087-1.703,19.374,1.44,23.04
	c2.038,2.377,5.05,0.811,7.2,2.88c-0.52,2.656-4.092,1.385-5.76,1.439c-14.065,0.461-33.004,0.427-46.08-0.96
	c1.766-2.692,5.564-1.162,7.2-3.359c3.06-4.109,1.44-13.786,1.44-20.16c0-6.686,0.44-14.426-2.4-18.72
	c-6.512-9.849-19.615-1.988-23.52,5.76c2.075,8.881-3.204,26.236,0.96,32.64c1.834,2.82,4.411,1.403,7.2,3.36
	c-1.282,2.606-6.982,1.439-10.56,1.439c-10.7,0-23.542,0-34.56,0c0-3.68,0-7.359,0-11.04c-9.528,13.162-40.288,18.446-51.36,0.96
	c-9.32-14.719-1.878-42.644-4.32-61.439c-0.818-6.301-3.388-7.226-9.12-9.12c-0.096-0.031,0.073-0.861,0-0.96
	C-133.742-711.058-119.538-711.058-112-709.46z"/>
<path fill-rule="evenodd" clip-rule="evenodd" d="M269.6-585.62c-0.64,0-1.279,0-1.92,0c-1.32-0.759-3.33-0.829-4.8-1.439
	c0.81-3.19,2.07-5.93,2.88-9.12c11.513,3.421,16.23-4.72,19.2-13.44c1.822-5.351,5.298-12.582,5.28-16.32
	c-0.015-2.975-2.939-8.162-4.8-12.479c-1.765-4.095-3.649-8.203-5.28-12c-2.179-5.072-7.02-20.658-11.04-23.521
	c-3.501-2.491-12.202-1.022-16.32-1.439c2.126,10.901-3.995,36.053,2.88,41.76c4.918,4.082,13.498-0.276,16.801-2.399
	c-1.023,7.302-13.578,11.627-21.601,8.159c-13.021-5.628-5.794-30.294-7.68-47.52c-3.046-0.314-7.353,0.633-9.601-0.48
	c0.094-3.262,3.422-3.305,5.28-4.8c2.551-2.052,5.712-5.405,7.68-8.16c1.627-2.276,1.938-6.198,5.28-7.199
	c2.211,3.869,0.342,11.818,0.96,17.279c9.929,1.432,23.193-0.474,33.12,0.96c-0.416,2.694-3.694,2.307-4.32,4.8
	c-1.095,4.364,4.046,11.683,6.24,16.801c2.716,6.332,5.224,11.876,6.72,16.319c2.29-3.576,3.598-9.408,5.761-15.84
	c2.861-8.509,9.068-19.201-0.48-21.6c3.868-1.896,13.099-0.978,17.76-0.48c0.166,2.726-3.742,1.378-4.8,2.88
	c-5.916,4.87-7.94,13.81-11.04,23.04c-4.412,13.143-8.788,26.453-12.96,38.88C284.664-600.66,281.246-588.307,269.6-585.62z"/>
<path fill-rule="evenodd" clip-rule="evenodd" d="M143.36-680.18c0.319,0,0.64,0,0.96,0c0,3.52,0,7.04,0,10.56
	c6.899-4.558,15.848-14.571,26.88-7.68c-1.181,3.459-2.681,6.6-3.84,10.08c-6.672-5.633-18.576-5.877-23.04,1.92
	c1.067,11.412-2.592,27.551,2.88,34.56c1.409,0.99,5.323-0.522,5.76,1.44c-0.381,2.606-4.136,1.379-6.24,1.439
	c-5.976,0.174-15.846,0.634-20.64-0.96c-0.466-2.865,4.192-0.607,5.28-1.92c0.279-0.563,1.725-0.666,2.399-1.92
	c1.951-3.623,2.279-36.09,0-40.8c-1.592-3.289-5.85-1.809-9.12-3.84c1.275-2.353,5.451-1.666,8.641-1.92
	c3.239-0.259,7.082-0.195,9.6-0.96C143.04-680.18,143.2-680.18,143.36-680.18z"/>
<path fill-rule="evenodd" clip-rule="evenodd" d="M124.64-659.06c-12.479,0-24.96,0-37.439,0c-0.338,15.555,9.067,32.461,24,29.279
	c4.369-0.931,7.528-4.734,10.56-6.239c-0.806,6.697-7.316,8.497-12,9.119c-15.389,2.046-30.227-6.575-32.16-21.119
	c-2.348-17.669,8.991-34.111,28.801-31.681C116.78-678.426,124.458-671.699,124.64-659.06z M87.68-661.46c9.28,0,18.561,0,27.84,0
	C118.192-682.347,85.174-681.752,87.68-661.46z"/>
<path fill-rule="evenodd" clip-rule="evenodd" d="M202.88-679.7c-0.317,4.803,0.637,10.877-0.479,14.88
	c-4.685-1.939-3.188-7.388-7.2-10.56c-7.23-5.716-21.715,0.481-14.4,10.08c6.7,8.791,27.365,6.41,24.96,25.439
	c-0.993,7.864-8.481,14.17-18.72,12.96c-3.354-0.396-6.81-3.74-10.08-3.359c-2.848,0.331-1.654,1.87-4.8,3.359
	c-1.893-3.551-0.979-12.456-0.48-16.8c3.548,1.218,3.397,4.911,4.801,7.2c2.159,3.523,6.412,9.134,15.84,7.2
	c4.548-0.934,7.834-5.8,6.239-11.521c-2.757-9.891-33.984-10.822-25.92-30.239c2.54-6.114,10.052-9.604,17.761-8.641
	c2.118,0.265,4.626,2.13,7.199,1.92C200.473-678.014,199.118-679.809,202.88-679.7z"/>
<path fill-rule="evenodd" clip-rule="evenodd" d="M227.84-679.7c0,6.108,0,14.881,0,24.48c0,7.848-1.696,19.491,1.44,23.04
	c2.066,2.337,5.005,0.839,7.2,2.88c-0.393,2.613-4.201,1.375-6.24,1.439c-6.252,0.198-16.526,0.616-21.601-0.96
	c1.402-2.918,8.025-0.614,9.12-3.84c0.797-4.739,0.48-12.888,0.48-21.6c0-7.201,1.568-17.184-1.44-20.16
	c-2.466-2.44-5.589-0.11-8.16-2.4c0.551-2.269,4.062-1.69,6.24-1.92C218.951-679.169,223.497-679.575,227.84-679.7z"/>
<path fill-rule="evenodd" clip-rule="evenodd" d="M50.72-677.78c-1.061,3.026-4.596,2.131-5.279,5.28
	c-0.902,4.154,4.061,11.099,6.239,16.32c2.571,6.16,4.333,11.885,6.24,15.84c1.966-3.805,3.798-9.425,6.24-15.84
	c1.95-5.123,6.593-12.527,5.28-16.801c-0.947-3.08-4.24-1.816-6.24-4.319c4.026-1.896,13.419-0.977,18.24-0.48
	c-1.27,2.929-4.609,2.086-6.721,3.84c-4.41,3.666-7.715,17.502-10.08,23.521c-3.481,8.861-6.025,17.509-10.08,23.52
	c-3.465-2.632-4.585-7.574-6.239-11.52c-4.992-11.902-9.49-26.045-16.32-36.96c-1.613-0.947-5.084-0.036-5.76-1.92
	C32.335-679.206,43.828-678.27,50.72-677.78z"/>
<path fill-rule="evenodd" clip-rule="evenodd" fill="#FFFFFF" d="M115.52-661.46c-9.279,0-18.56,0-27.84,0
	C85.174-681.752,118.192-682.347,115.52-661.46z"/>
<path fill-rule="evenodd" clip-rule="evenodd" d="M167.36-1026.74c0.955,1.422-2.68,2.426-4.32,3.84
	c-11.895,10.251-23.04,30.857-23.04,52.8c0,41.928,36.792,62.07,46.08,96c4.191,15.313,0.294,32.425-6.24,44.64
	c-5.066-1.334-9.562-3.239-13.92-5.28c11.054-26.989-7.612-49.234-20.16-66.72c-9.887-13.779-21.344-29.877-22.56-51.84
	C121.224-988.995,141.582-1013.515,167.36-1026.74z"/>
<path fill-rule="evenodd" clip-rule="evenodd" d="M853.021-879.565c1.595,4.198,1.595,15.001,0,19.2
	c-2.937-1.676-2.532-5.583-3.84-8.16c-2.267-4.467-7.873-9.292-14.88-9.6c-8.728-0.383-17.196,4.81-15.84,15.36
	c2.457,19.116,36.987,19.839,39.84,42.239c2.796,21.956-20.384,32.657-42.24,22.081c-3.021-0.141-1.78,3.979-5.279,3.359
	c0.318-7.201-0.639-15.678,0.479-22.08c3.295,2.142,2.209,5.82,3.36,8.64c2.652,6.5,10.029,11.367,17.76,11.52
	c12.78,0.254,19.912-9.566,16.32-20.16c-5.039-14.858-34.551-17.335-37.44-37.44c-3.229-22.47,18.405-31.262,37.92-22.56
	C852.019-876.409,850.544-879.964,853.021-879.565z"/>
<path fill-rule="evenodd" clip-rule="evenodd" d="M458.462-828.685c0-2.561,0-5.12,0-7.681c3.552-25.094,19.385-43.185,44.641-41.76
	c6.248,0.353,13.975,4.761,19.199,4.32c2.736-0.23,4.202-3.159,7.2-2.88c-0.669,8.351,1.175,16.742,0,24
	c-2.565-0.448-2.367-3.167-2.88-4.32c-4.098-9.22-11.638-16.948-22.561-18.24c-36.981-4.373-40.287,49.729-23.52,67.679
	c4.865,5.211,15.238,10.406,24,10.561c4.472,0.08,9.656-0.557,12-2.879c2.896-2.869,4.836-20.9,0-25.441
	c-2.666-2.504-6.301-0.527-9.6-2.88c0.704-2.648,4.789-1.409,6.72-1.439c8.454-0.136,17.644,0.102,25.44,0
	c2.229-3.731,3.074-6.973,5.76-10.08c11.787-13.641,41.445-9.842,40.8,12.479c-12.48,0-24.96,0-37.44,0
	c-0.857,16.021,9.154,32.537,24,29.281c4.898-1.074,8.12-5.4,11.52-7.201c-0.384,5.838-7.01,9.291-12.479,10.08
	c-22.497,3.244-35.457-12.139-32.64-32.16c-13.279,0.001-7.293,19.267-8.641,31.201
	C496.421-788.938,460.458-796.621,458.462-828.685z M549.662-829.645c9.28,0,18.56,0,27.84,0
	C579.886-850.24,547.321-850.042,549.662-829.645z"/>
<path fill-rule="evenodd" clip-rule="evenodd" d="M873.182-864.206c0.48,0,0.96,0,1.44,0c2.211,3.869,0.342,11.818,0.96,17.28
	c2.289,0.863,6.089,0.479,9.6,0.479c3.033,0,7.398-1.143,8.16,1.44c-0.864,2.594-5.104,1.439-8.16,1.439c-3.218,0-6.905,0-9.6,0
	c2.588,11.367-4.854,36.578,3.36,42.24c3.894,2.686,11.712,1.156,14.88-2.879c-3.562-18.303,16.721-16.865,27.359-22.56
	c2.616-12.662-8.993-20.486-18.239-14.4c-3.688,2.427-4.672,6.608-7.681,8.64c-1.572-17.63,29.819-20.868,35.04-4.8
	c1.866,5.741,0.96,15.551,0.96,23.521c0,4.75-1.334,10.395,1.92,13.439c3.54,1.811,3.018-4.248,5.761-4.801
	c4.728,9.586-16.059,14.828-17.28,3.84c-4.668,7.148-22.843,9.26-26.4-0.479c-6.679,8.807-26.498,10.115-29.28-3.361
	c-2.313-11.209,1.709-24.712,0-37.919c-2.161-1.358-7.457,0.418-9.6-0.96c0.271-3.353,3.869-3.734,5.76-5.28
	c4.339-3.548,8.124-9.111,10.561-14.88C872.862-864.206,873.021-864.206,873.182-864.206z M905.822-816.205
	c-4.594,5.662-1.314,14.473,4.319,16.32c5.801,1.9,9.478-2.939,12.48-6.24c0-5.76,0-11.52,0-17.281c-0.32,0-0.641,0-0.96,0
	C917.301-820.285,909.939-821.282,905.822-816.205z"/>
<path fill-rule="evenodd" clip-rule="evenodd" d="M950.942-864.206c0.479,0,0.96,0,1.439,0c2.212,4.027,0.341,12.14,0.96,17.76
	c2.695,0,6.382,0,9.601,0c3.055,0,7.295-1.154,8.159,1.44c-0.864,2.594-5.104,1.439-8.159,1.439c-3.219,0-6.905,0-9.601,0
	c2.518,11.572-4.747,36.535,3.36,42.24c4.294,3.023,11.718,0.664,15.359-2.879c-13.052-18.718-0.26-46.598,23.521-43.68
	c10.588,1.299,18.051,8.31,18.72,20.64c-12.479,0-24.96,0-37.439,0c-0.902,13.867,6.878,29.673,20.159,29.759
	c6.146,0.041,10.536-4.668,14.4-6.719c-1.779,10.406-20.695,11.646-30.72,6.719c-2.896-1.422-5.051-4.148-7.2-5.279
	c-5.628,9.66-25.314,11.15-29.28-0.959c-3.635-11.104,1.696-25.814-0.479-39.361c-2.161-1.358-7.458,0.418-9.601-0.96
	c-0.002-3.257,3.591-3.454,5.28-4.8c4.513-3.598,8.528-9.395,11.04-15.36C950.622-864.206,950.782-864.206,950.942-864.206z
	 M980.702-841.166c-2.477,3.086-2.781,6.68-3.84,11.521c9.279,0,18.56,0,27.84,0C1006.961-844.368,988.271-850.598,980.702-841.166z
	"/>
<path fill-rule="evenodd" clip-rule="evenodd" d="M611.582-847.885c16.171-2.275,30.559,7.356,32.64,21.12
	c6.444,42.615-61.727,42.058-55.199-0.48C590.646-837.833,600.48-846.324,611.582-847.885z M613.502-797.965
	c27.839,6.68,29.873-51.757,1.44-47.521C595.062-842.523,595.63-802.254,613.502-797.965z"/>
<path fill-rule="evenodd" clip-rule="evenodd" d="M661.022-848.366c1.113,2.566,0.164,7.195,0.479,10.561
	c6.809-4.377,16.599-15.111,26.88-7.2c-1.393,3.088-2.68,6.28-3.84,9.6c-6.182-5.488-19.105-5.601-23.04,1.92
	c1.864,12.777-5.544,36.208,8.64,36c-0.381,2.607-4.135,1.379-6.24,1.441c-5.975,0.174-15.846,0.633-20.64-0.961
	c0.222-2.818,5.296-0.785,6.72-2.4c1.984-6.178,3.383-29.221,1.92-38.879c-0.828-5.471-4.408-5.97-10.08-6.72
	c0.68-2.83,5.316-2.185,8.16-2.4c3.429-0.26,7.109-0.43,10.08-0.479C660.62-847.807,660.916-847.992,661.022-848.366z"/>
<path fill-rule="evenodd" clip-rule="evenodd" d="M749.342-848.366c0,6.361,0,15.088,0,24c0,8.221-1.616,18.61,0.48,23.04
	c1.683,3.559,5.487,1.959,8.159,3.84c-0.392,2.615-4.2,1.377-6.239,1.441c-6.252,0.197-16.526,0.615-21.601-0.961
	c0.033-3.008,5.53-0.549,7.2-1.92c3.771-4.359,2.4-13.828,2.4-22.08c0-8.26,1.427-17.727-2.4-22.08
	c-3.593-0.752-9.513-0.866-12.479,0.479c0.418,2.913,3.463,5.627,4.32,8.16c2.971,8.787,0.019,17.546-5.761,22.561
	c-6.591,5.717-29.417,4.902-28.8,15.359c0.277,4.689,10.449,6.406,16.8,7.68c11.353,2.277,32.388,4.514,25.44,22.08
	c-1.305,3.297-5.537,7.58-8.641,9.6c-11.579,7.541-38.531,8.135-45.119-3.84c-6.538-11.881,5.262-18.035,14.879-22.08
	c-4.72-2.432-10.205-3.244-11.039-8.639c-1.432-9.254,9.17-12.596,15.84-15.842c-20.182-2.781-22.682-37.347,2.4-40.319
	C718.779-849.497,735.788-845.349,749.342-848.366z M710.942-809.486c14.643-1.555,16.223-39.583-3.84-35.519
	C692.271-842.001,693.048-807.584,710.942-809.486z M688.862-770.125c-0.146,9.656,14.975,13.738,26.399,13.439
	c9.071-0.236,20.688-4.691,18.24-14.4c-1.715-6.797-24.808-11.295-30.72-10.559C696.396-780.852,688.975-777.559,688.862-770.125z"
	/>
<path fill-rule="evenodd" clip-rule="evenodd" d="M798.782-799.885c4.059,0.379,2.673-4.688,5.76-5.281
	c2.06,5.773-3.964,11.693-12.48,10.08c-1.936-1.744-4.205-3.154-4.8-6.24c-3.269,1.379-5.161,4.734-8.64,5.76
	c-7.964,2.352-17.105-1.592-19.2-7.68c-6.149-17.87,16.963-18.367,27.36-23.519c2.744-14.846-11.187-20.321-19.681-13.44
	c-2.882,2.335-3.648,6.197-6.239,7.68c-1.668-17.3,28.459-20.59,34.56-5.76C799.661-827.979,793.563-810.283,798.782-799.885z
	 M787.262-823.406c-3.277,2.068-13.499,3.421-16.319,7.681c-8.862,13.381,12.253,22.338,16.8,10.08
	C787.424-811.406,788.38-818.443,787.262-823.406z"/>
<path fill-rule="evenodd" clip-rule="evenodd" fill="#FFFFFF" d="M614.942-845.486c28.433-4.236,26.398,54.201-1.44,47.521
	C595.63-802.254,595.062-842.523,614.942-845.486z"/>
<path fill-rule="evenodd" clip-rule="evenodd" fill="#FFFFFF" d="M577.502-829.645c-9.28,0-18.56,0-27.84,0
	C547.321-850.042,579.886-850.24,577.502-829.645z"/>
<path fill-rule="evenodd" clip-rule="evenodd" fill="#FFFFFF" d="M707.103-845.005c20.062-4.064,18.482,33.964,3.84,35.519
	C693.048-807.584,692.271-842.001,707.103-845.005z"/>
<path fill-rule="evenodd" clip-rule="evenodd" fill="#FFFFFF" d="M787.742-805.645c-4.547,12.258-25.662,3.301-16.8-10.08
	c2.82-4.26,13.042-5.613,16.319-7.681C788.38-818.443,787.424-811.406,787.742-805.645z"/>
<path fill-rule="evenodd" clip-rule="evenodd" fill="#FFFFFF" d="M921.662-823.406c0.319,0,0.64,0,0.96,0c0,5.761,0,11.521,0,17.281
	c-3.003,3.301-6.68,8.141-12.48,6.24c-5.634-1.848-8.913-10.658-4.319-16.32C909.939-821.282,917.301-820.285,921.662-823.406z"/>
<path fill-rule="evenodd" clip-rule="evenodd" fill="#FFFFFF" d="M702.782-781.645c5.912-0.736,29.005,3.762,30.72,10.559
	c2.448,9.709-9.169,14.164-18.24,14.4c-11.425,0.299-26.546-3.783-26.399-13.439C688.975-777.559,696.396-780.852,702.782-781.645z"
	/>
<path fill-rule="evenodd" clip-rule="evenodd" d="M810.782-779.246c67.84,0,135.679,0,203.52,0c1.304,0.502,0.267,9.404,0.48,10.561
	c-68.16,0-136.321,0-204.48,0c0-3.039,0-6.08,0-9.119C810.261-778.486,810.223-779.164,810.782-779.246z"/>
<path fill-rule="evenodd" clip-rule="evenodd" d="M1043.198-876.813c-1.432,2.462-5.111,1.723-6.721,3.36
	c-4.327,4.403-2.399,18.556-2.399,30.72c0,23.766-1.893,44.274,21.12,44.161c10.41-0.053,17.934-5.764,23.52-13.92
	c-1.348-14.501,1.775-39.534,0-53.761c-0.711-5.698-3.953-8.877-9.119-10.08c0.596-2.628,4.463-1.403,6.72-1.439
	c6.626-0.105,17.104-0.686,22.56,0.96c-0.648,2.547-3.236,1.444-4.32,1.92c-3.436,1.508-4.785,4.778-5.279,11.04
	c-1.193,15.108-0.959,39.93,0,54.24c0.481,7.18,4.246,15.791,13.439,11.52c4.695-2.18,3.36-14.584,3.36-23.04
	c0-5.987,1.492-17.385-1.44-20.64c-1.682-1.866-4.734-1.011-7.199-2.88c1.297-2.405,5.565-1.657,8.64-1.92
	c3.318-0.284,6.847-0.509,9.601-0.96c0,3.199,0,6.399,0,9.6c4.726-6.484,19.865-13.483,29.279-6.24
	c10.68,8.217,3.458,30.349,7.68,45.121c3.16,2.271,11.361,2.045,13.44-0.961c-1.622-7.615,3.864-32.587,0-40.32
	c-1.914-3.83-6.079-1.629-9.12-3.84c1.496-2.617,6.024-1.611,9.12-1.92c3.489-0.348,6.886-1.158,10.08-0.96
	c0,6.016,0,15.236,0,24.48c0,8.086-1.702,19.374,1.44,23.04c2.037,2.377,5.05,0.811,7.199,2.881c-0.52,2.656-4.092,1.385-5.76,1.439
	c-14.064,0.461-33.004,0.426-46.08-0.961c1.766-2.691,5.564-1.162,7.2-3.359c3.06-4.109,1.44-13.785,1.44-20.16
	c0-6.686,0.439-14.426-2.4-18.72c-6.512-9.849-19.615-1.988-23.52,5.76c2.074,8.881-3.205,26.237,0.959,32.639
	c1.834,2.82,4.412,1.404,7.201,3.361c-1.283,2.605-6.982,1.439-10.561,1.439c-10.699,0-23.543,0-34.561,0c0-3.68,0-7.359,0-11.041
	c-9.527,13.162-40.287,18.447-51.359,0.961c-9.32-14.719-1.879-42.644-4.32-61.44c-0.818-6.301-3.389-7.226-9.119-9.12
	c-0.096-0.031,0.072-0.861,0-0.96C1021.456-878.411,1035.661-878.411,1043.198-876.813z"/>
<path fill-rule="evenodd" clip-rule="evenodd" d="M1424.798-752.973c-0.64,0-1.279,0-1.92,0c-1.32-0.76-3.33-0.83-4.8-1.439
	c0.81-3.191,2.07-5.93,2.88-9.121c11.513,3.422,16.23-4.719,19.2-13.439c1.822-5.352,5.298-12.582,5.28-16.32
	c-0.015-2.975-2.939-8.162-4.8-12.48c-1.765-4.094-3.649-8.203-5.28-12c-2.179-5.072-7.02-20.658-11.04-23.521
	c-3.501-2.491-12.202-1.022-16.32-1.439c2.126,10.901-3.995,36.053,2.88,41.76c4.918,4.082,13.498-0.277,16.801-2.4
	c-1.023,7.303-13.578,11.627-21.601,8.16c-13.021-5.629-5.794-30.294-7.68-47.52c-3.046-0.314-7.353,0.633-9.601-0.48
	c0.094-3.262,3.422-3.305,5.28-4.8c2.551-2.052,5.712-5.405,7.68-8.16c1.627-2.276,1.938-6.198,5.28-7.199
	c2.211,3.869,0.342,11.818,0.96,17.279c9.929,1.432,23.193-0.474,33.12,0.96c-0.416,2.694-3.694,2.307-4.32,4.8
	c-1.095,4.364,4.046,11.683,6.24,16.801c2.716,6.332,5.224,11.876,6.72,16.32c2.29-3.576,3.598-9.409,5.761-15.84
	c2.861-8.509,9.068-19.201-0.48-21.6c3.868-1.896,13.099-0.978,17.76-0.48c0.166,2.726-3.742,1.378-4.8,2.88
	c-5.916,4.87-7.94,13.81-11.04,23.04c-4.412,13.143-8.788,26.454-12.96,38.879C1439.862-768.014,1436.444-755.66,1424.798-752.973z"
	/>
<path fill-rule="evenodd" clip-rule="evenodd" d="M1298.559-847.533c0.319,0,0.64,0,0.96,0c0,3.52,0,7.04,0,10.56
	c6.899-4.558,15.848-14.571,26.88-7.68c-1.181,3.459-2.681,6.6-3.84,10.08c-6.672-5.633-18.576-5.877-23.04,1.92
	c1.067,11.412-2.592,27.551,2.88,34.559c1.409,0.99,5.323-0.521,5.76,1.441c-0.381,2.605-4.136,1.379-6.24,1.439
	c-5.976,0.174-15.846,0.633-20.64-0.961c-0.466-2.865,4.192-0.607,5.28-1.92c0.279-0.562,1.725-0.666,2.399-1.92
	c1.951-3.623,2.279-36.089,0-40.799c-1.592-3.289-5.85-1.809-9.12-3.84c1.275-2.353,5.451-1.666,8.641-1.92
	c3.239-0.259,7.082-0.195,9.6-0.96C1298.238-847.533,1298.398-847.533,1298.559-847.533z"/>
<path fill-rule="evenodd" clip-rule="evenodd" d="M1279.838-826.413c-12.479,0-24.96,0-37.439,0
	c-0.338,15.555,9.067,32.461,24,29.28c4.369-0.932,7.528-4.734,10.56-6.24c-0.806,6.697-7.316,8.498-12,9.119
	c-15.389,2.047-30.227-6.574-32.16-21.119c-2.348-17.668,8.991-34.111,28.801-31.68
	C1271.979-845.779,1279.656-839.052,1279.838-826.413z M1242.878-828.813c9.28,0,18.561,0,27.84,0
	C1273.391-849.7,1240.372-849.105,1242.878-828.813z"/>
<path fill-rule="evenodd" clip-rule="evenodd" d="M1358.078-847.053c-0.317,4.803,0.637,10.877-0.479,14.88
	c-4.685-1.939-3.188-7.388-7.2-10.56c-7.23-5.716-21.715,0.481-14.4,10.08c6.7,8.791,27.365,6.41,24.96,25.44
	c-0.993,7.863-8.481,14.17-18.72,12.959c-3.354-0.395-6.81-3.74-10.08-3.359c-2.848,0.332-1.654,1.871-4.8,3.359
	c-1.893-3.551-0.979-12.455-0.48-16.799c3.548,1.217,3.397,4.91,4.801,7.199c2.159,3.523,6.412,9.135,15.84,7.201
	c4.548-0.934,7.834-5.801,6.239-11.521c-2.757-9.89-33.984-10.822-25.92-30.239c2.54-6.114,10.052-9.604,17.761-8.641
	c2.118,0.265,4.626,2.13,7.199,1.92C1355.671-845.367,1354.316-847.162,1358.078-847.053z"/>
<path fill-rule="evenodd" clip-rule="evenodd" d="M1383.038-847.053c0,6.108,0,14.881,0,24.48c0,7.848-1.696,19.491,1.44,23.04
	c2.066,2.338,5.005,0.84,7.2,2.881c-0.393,2.613-4.201,1.375-6.24,1.439c-6.252,0.197-16.526,0.615-21.601-0.961
	c1.402-2.918,8.025-0.613,9.12-3.84c0.797-4.738,0.48-12.887,0.48-21.599c0-7.201,1.568-17.184-1.44-20.16
	c-2.466-2.44-5.589-0.11-8.16-2.4c0.551-2.269,4.062-1.69,6.24-1.92C1374.149-846.522,1378.695-846.928,1383.038-847.053z"/>
<path fill-rule="evenodd" clip-rule="evenodd" d="M1205.918-845.133c-1.061,3.026-4.596,2.131-5.279,5.28
	c-0.902,4.154,4.061,11.099,6.239,16.32c2.571,6.16,4.333,11.884,6.24,15.839c1.966-3.805,3.798-9.424,6.24-15.839
	c1.95-5.123,6.593-12.527,5.28-16.801c-0.947-3.08-4.24-1.816-6.24-4.319c4.026-1.896,13.419-0.977,18.24-0.48
	c-1.27,2.929-4.609,2.086-6.721,3.84c-4.41,3.666-7.715,17.502-10.08,23.521c-3.481,8.861-6.025,17.509-10.08,23.519
	c-3.465-2.631-4.585-7.574-6.239-11.52c-4.992-11.902-9.49-26.044-16.32-36.959c-1.613-0.947-5.084-0.036-5.76-1.92
	C1187.534-846.559,1199.026-845.623,1205.918-845.133z"/>
<path fill-rule="evenodd" clip-rule="evenodd" fill="#FFFFFF" d="M1270.718-828.813c-9.279,0-18.56,0-27.84,0
	C1240.372-849.105,1273.391-849.7,1270.718-828.813z"/>
<path fill-rule="evenodd" clip-rule="evenodd" fill="#FFFFFF" d="M852.021-691.565c1.595,4.198,1.595,15.001,0,19.2
	c-2.937-1.676-2.532-5.584-3.84-8.16c-2.267-4.467-7.873-9.293-14.88-9.6c-8.728-0.384-17.196,4.809-15.84,15.359
	c2.457,19.117,36.987,19.84,39.84,42.24c2.796,21.955-20.384,32.656-42.24,22.08c-3.021-0.141-1.78,3.979-5.279,3.359
	c0.318-7.201-0.639-15.678,0.479-22.08c3.295,2.143,2.209,5.82,3.36,8.641c2.652,6.5,10.029,11.367,17.76,11.52
	c12.78,0.254,19.912-9.566,16.32-20.16c-5.039-14.857-34.551-17.334-37.44-37.439c-3.229-22.471,18.405-31.262,37.92-22.561
	C851.019-688.408,849.544-691.964,852.021-691.565z"/>
<path fill-rule="evenodd" clip-rule="evenodd" fill="#FFFFFF" d="M457.462-640.686c0-2.561,0-5.119,0-7.68
	c3.552-25.094,19.385-43.186,44.641-41.76c6.248,0.352,13.975,4.76,19.199,4.32c2.736-0.23,4.202-3.16,7.2-2.881
	c-0.669,8.352,1.175,16.742,0,24c-2.565-0.447-2.367-3.166-2.88-4.32c-4.098-9.219-11.638-16.947-22.561-18.24
	c-36.981-4.373-40.287,49.73-23.52,67.68c4.865,5.211,15.238,10.406,24,10.561c4.472,0.08,9.656-0.557,12-2.879
	c2.896-2.869,4.836-20.9,0-25.441c-2.666-2.504-6.301-0.527-9.6-2.879c0.704-2.648,4.789-1.41,6.72-1.439
	c8.454-0.137,17.644,0.102,25.44,0c2.229-3.732,3.074-6.973,5.76-10.08c11.787-13.641,41.445-9.842,40.8,12.479
	c-12.48,0-24.96,0-37.44,0c-0.857,16.021,9.154,32.537,24,29.281c4.898-1.074,8.12-5.4,11.52-7.201
	c-0.384,5.838-7.01,9.291-12.479,10.08c-22.497,3.244-35.457-12.139-32.64-32.16c-13.279,0.002-7.293,19.268-8.641,31.201
	C495.421-600.938,459.458-608.621,457.462-640.686z M548.662-641.645c9.28,0,18.56,0,27.84,0
	C578.886-662.24,546.321-662.041,548.662-641.645z"/>
<path fill-rule="evenodd" clip-rule="evenodd" fill="#FFFFFF" d="M872.182-676.205c0.48,0,0.96,0,1.44,0
	c2.211,3.869,0.342,11.818,0.96,17.279c2.289,0.863,6.089,0.48,9.6,0.48c3.033,0,7.398-1.143,8.16,1.439
	c-0.864,2.594-5.104,1.439-8.16,1.439c-3.218,0-6.905,0-9.6,0c2.588,11.367-4.854,36.578,3.36,42.24
	c3.894,2.686,11.712,1.156,14.88-2.879c-3.562-18.303,16.721-16.865,27.359-22.561c2.616-12.662-8.993-20.486-18.239-14.4
	c-3.688,2.428-4.672,6.609-7.681,8.641c-1.572-17.631,29.819-20.869,35.04-4.801c1.866,5.742,0.96,15.551,0.96,23.521
	c0,4.75-1.334,10.395,1.92,13.439c3.54,1.811,3.018-4.248,5.761-4.801c4.728,9.586-16.059,14.828-17.28,3.84
	c-4.668,7.148-22.843,9.26-26.4-0.479c-6.679,8.807-26.498,10.115-29.28-3.361c-2.313-11.209,1.709-24.713,0-37.92
	c-2.161-1.357-7.457,0.418-9.6-0.959c0.271-3.354,3.869-3.734,5.76-5.281c4.339-3.547,8.124-9.111,10.561-14.879
	C871.862-676.205,872.021-676.205,872.182-676.205z M904.822-628.205c-4.594,5.662-1.314,14.473,4.319,16.32
	c5.801,1.9,9.478-2.939,12.48-6.24c0-5.76,0-11.52,0-17.281c-0.32,0-0.641,0-0.96,0
	C916.301-632.285,908.939-633.281,904.822-628.205z"/>
<path fill-rule="evenodd" clip-rule="evenodd" fill="#FFFFFF" d="M949.942-676.205c0.479,0,0.96,0,1.439,0
	c2.212,4.027,0.341,12.139,0.96,17.76c2.695,0,6.382,0,9.601,0c3.055,0,7.295-1.154,8.159,1.439
	c-0.864,2.594-5.104,1.439-8.159,1.439c-3.219,0-6.905,0-9.601,0c2.518,11.572-4.747,36.535,3.36,42.24
	c4.294,3.023,11.718,0.664,15.359-2.879c-13.052-18.719-0.26-46.598,23.521-43.68c10.588,1.299,18.051,8.309,18.72,20.639
	c-12.479,0-24.96,0-37.439,0c-0.902,13.867,6.878,29.674,20.159,29.76c6.146,0.041,10.536-4.668,14.4-6.719
	c-1.779,10.406-20.695,11.646-30.72,6.719c-2.896-1.422-5.051-4.148-7.2-5.279c-5.628,9.66-25.314,11.15-29.28-0.959
	c-3.635-11.104,1.696-25.814-0.479-39.361c-2.161-1.357-7.458,0.418-9.601-0.959c-0.002-3.258,3.591-3.455,5.28-4.801
	c4.513-3.598,8.528-9.395,11.04-15.359C949.622-676.205,949.782-676.205,949.942-676.205z M979.702-653.166
	c-2.477,3.086-2.781,6.68-3.84,11.521c9.279,0,18.56,0,27.84,0C1005.961-656.367,987.271-662.598,979.702-653.166z"/>
<path fill-rule="evenodd" clip-rule="evenodd" fill="#FFFFFF" d="M610.582-659.885c16.171-2.275,30.559,7.355,32.64,21.119
	c6.444,42.615-61.727,42.059-55.199-0.48C589.646-649.834,599.48-658.324,610.582-659.885z M612.502-609.965
	c27.839,6.68,29.873-51.758,1.44-47.521C594.062-654.523,594.63-614.254,612.502-609.965z"/>
<path fill-rule="evenodd" clip-rule="evenodd" fill="#FFFFFF" d="M660.022-660.365c1.113,2.566,0.164,7.195,0.479,10.561
	c6.809-4.377,16.599-15.111,26.88-7.201c-1.393,3.088-2.68,6.281-3.84,9.6c-6.182-5.488-19.105-5.6-23.04,1.92
	c1.864,12.777-5.544,36.209,8.64,36c-0.381,2.607-4.135,1.379-6.24,1.441c-5.975,0.174-15.846,0.633-20.64-0.961
	c0.222-2.818,5.296-0.785,6.72-2.4c1.984-6.178,3.383-29.221,1.92-38.879c-0.828-5.471-4.408-5.971-10.08-6.721
	c0.68-2.83,5.316-2.184,8.16-2.4c3.429-0.26,7.109-0.43,10.08-0.479C659.62-659.807,659.916-659.992,660.022-660.365z"/>
<path fill-rule="evenodd" clip-rule="evenodd" fill="#FFFFFF" d="M748.342-660.365c0,6.361,0,15.088,0,24
	c0,8.221-1.616,18.609,0.48,23.039c1.683,3.559,5.487,1.959,8.159,3.84c-0.392,2.615-4.2,1.377-6.239,1.441
	c-6.252,0.197-16.526,0.615-21.601-0.961c0.033-3.008,5.53-0.549,7.2-1.92c3.771-4.359,2.4-13.828,2.4-22.08
	c0-8.26,1.427-17.727-2.4-22.08c-3.593-0.752-9.513-0.865-12.479,0.48c0.418,2.912,3.463,5.627,4.32,8.16
	c2.971,8.787,0.019,17.545-5.761,22.561c-6.591,5.717-29.417,4.902-28.8,15.359c0.277,4.689,10.449,6.406,16.8,7.68
	c11.353,2.277,32.388,4.514,25.44,22.08c-1.305,3.297-5.537,7.58-8.641,9.6c-11.579,7.541-38.531,8.135-45.119-3.84
	c-6.538-11.881,5.262-18.035,14.879-22.08c-4.72-2.432-10.205-3.244-11.039-8.639c-1.432-9.254,9.17-12.596,15.84-15.842
	c-20.182-2.781-22.682-37.348,2.4-40.318C717.779-661.496,734.788-657.35,748.342-660.365z M709.942-621.486
	c14.643-1.555,16.223-39.584-3.84-35.52C691.271-654.002,692.048-619.584,709.942-621.486z M687.862-582.125
	c-0.146,9.656,14.975,13.738,26.399,13.439c9.071-0.236,20.688-4.691,18.24-14.4c-1.715-6.797-24.808-11.295-30.72-10.559
	C695.396-592.852,687.975-589.559,687.862-582.125z"/>
<path fill-rule="evenodd" clip-rule="evenodd" fill="#FFFFFF" d="M797.782-611.885c4.059,0.379,2.673-4.688,5.76-5.281
	c2.06,5.773-3.964,11.693-12.48,10.08c-1.936-1.744-4.205-3.154-4.8-6.24c-3.269,1.379-5.161,4.734-8.64,5.76
	c-7.964,2.352-17.105-1.592-19.2-7.68c-6.149-17.869,16.963-18.367,27.36-23.52c2.744-14.846-11.187-20.32-19.681-13.439
	c-2.882,2.334-3.648,6.197-6.239,7.68c-1.668-17.301,28.459-20.59,34.56-5.76C798.661-639.979,792.563-622.283,797.782-611.885z
	 M786.262-635.406c-3.277,2.068-13.499,3.422-16.319,7.682c-8.862,13.381,12.253,22.338,16.8,10.08
	C786.424-623.406,787.38-630.443,786.262-635.406z"/>
<path fill-rule="evenodd" clip-rule="evenodd" fill="none" d="M613.942-657.486c28.433-4.236,26.398,54.201-1.44,47.521
	C594.63-614.254,594.062-654.523,613.942-657.486z"/>
<path fill-rule="evenodd" clip-rule="evenodd" fill="none" d="M576.502-641.645c-9.28,0-18.56,0-27.84,0
	C546.321-662.041,578.886-662.24,576.502-641.645z"/>
<path fill-rule="evenodd" clip-rule="evenodd" fill="none" d="M706.103-657.006c20.062-4.064,18.482,33.965,3.84,35.52
	C692.048-619.584,691.271-654.002,706.103-657.006z"/>
<path fill-rule="evenodd" clip-rule="evenodd" fill="none" d="M786.742-617.645c-4.547,12.258-25.662,3.301-16.8-10.08
	c2.82-4.26,13.042-5.613,16.319-7.682C787.38-630.443,786.424-623.406,786.742-617.645z"/>
<path fill-rule="evenodd" clip-rule="evenodd" fill="none" d="M920.662-635.406c0.319,0,0.64,0,0.96,0c0,5.762,0,11.521,0,17.281
	c-3.003,3.301-6.68,8.141-12.48,6.24c-5.634-1.848-8.913-10.658-4.319-16.32C908.939-633.281,916.301-632.285,920.662-635.406z"/>
<path fill-rule="evenodd" clip-rule="evenodd" fill="none" d="M701.782-593.645c5.912-0.736,29.005,3.762,30.72,10.559
	c2.448,9.709-9.169,14.164-18.24,14.4c-11.425,0.299-26.546-3.783-26.399-13.439C687.975-589.559,695.396-592.852,701.782-593.645z"
	/>
<path fill-rule="evenodd" clip-rule="evenodd" fill="#FFFFFF" d="M809.782-591.246c67.84,0,135.679,0,203.52,0
	c1.304,0.502,0.267,9.404,0.48,10.561c-68.16,0-136.321,0-204.48,0c0-3.039,0-6.08,0-9.119
	C809.261-590.486,809.223-591.164,809.782-591.246z"/>
<path fill-rule="evenodd" clip-rule="evenodd" fill="#FFFFFF" d="M1042.198-688.812c-1.432,2.461-5.111,1.723-6.721,3.359
	c-4.327,4.404-2.399,18.557-2.399,30.721c0,23.766-1.893,44.273,21.12,44.16c10.41-0.053,17.934-5.764,23.52-13.92
	c-1.348-14.502,1.775-39.533,0-53.762c-0.711-5.697-3.953-8.877-9.119-10.08c0.596-2.627,4.463-1.402,6.72-1.439
	c6.626-0.105,17.104-0.686,22.56,0.961c-0.648,2.547-3.236,1.443-4.32,1.92c-3.436,1.508-4.785,4.777-5.279,11.039
	c-1.193,15.109-0.959,39.93,0,54.24c0.481,7.18,4.246,15.791,13.439,11.52c4.695-2.18,3.36-14.584,3.36-23.039
	c0-5.988,1.492-17.385-1.44-20.641c-1.682-1.865-4.734-1.01-7.199-2.879c1.297-2.406,5.565-1.658,8.64-1.92
	c3.318-0.285,6.847-0.51,9.601-0.961c0,3.199,0,6.4,0,9.6c4.726-6.484,19.865-13.482,29.279-6.24
	c10.68,8.217,3.458,30.35,7.68,45.121c3.16,2.271,11.361,2.045,13.44-0.961c-1.622-7.615,3.864-32.588,0-40.32
	c-1.914-3.83-6.079-1.629-9.12-3.84c1.496-2.617,6.024-1.611,9.12-1.92c3.489-0.348,6.886-1.158,10.08-0.959
	c0,6.016,0,15.236,0,24.48c0,8.086-1.702,19.373,1.44,23.039c2.037,2.377,5.05,0.811,7.199,2.881
	c-0.52,2.656-4.092,1.385-5.76,1.439c-14.064,0.461-33.004,0.426-46.08-0.961c1.766-2.691,5.564-1.162,7.2-3.359
	c3.06-4.109,1.44-13.785,1.44-20.16c0-6.686,0.439-14.426-2.4-18.719c-6.512-9.85-19.615-1.988-23.52,5.76
	c2.074,8.881-3.205,26.236,0.959,32.639c1.834,2.82,4.412,1.404,7.201,3.361c-1.283,2.605-6.982,1.439-10.561,1.439
	c-10.699,0-23.543,0-34.561,0c0-3.68,0-7.359,0-11.041c-9.527,13.162-40.287,18.447-51.359,0.961
	c-9.32-14.719-1.879-42.645-4.32-61.439c-0.818-6.301-3.389-7.227-9.119-9.121c-0.096-0.031,0.072-0.861,0-0.959
	C1020.456-690.41,1034.661-690.41,1042.198-688.812z"/>
<path fill-rule="evenodd" clip-rule="evenodd" fill="#FFFFFF" d="M1423.798-564.973c-0.64,0-1.279,0-1.92,0
	c-1.32-0.76-3.33-0.83-4.8-1.439c0.81-3.191,2.07-5.93,2.88-9.121c11.513,3.422,16.23-4.719,19.2-13.439
	c1.822-5.352,5.298-12.582,5.28-16.32c-0.015-2.975-2.939-8.162-4.8-12.48c-1.765-4.094-3.649-8.203-5.28-12
	c-2.179-5.072-7.02-20.658-11.04-23.52c-3.501-2.492-12.202-1.023-16.32-1.439c2.126,10.9-3.995,36.053,2.88,41.76
	c4.918,4.082,13.498-0.277,16.801-2.4c-1.023,7.303-13.578,11.627-21.601,8.16c-13.021-5.629-5.794-30.295-7.68-47.52
	c-3.046-0.314-7.353,0.633-9.601-0.48c0.094-3.262,3.422-3.305,5.28-4.801c2.551-2.051,5.712-5.404,7.68-8.16
	c1.627-2.275,1.938-6.197,5.28-7.199c2.211,3.869,0.342,11.818,0.96,17.279c9.929,1.432,23.193-0.473,33.12,0.961
	c-0.416,2.693-3.694,2.307-4.32,4.799c-1.095,4.365,4.046,11.684,6.24,16.801c2.716,6.332,5.224,11.877,6.72,16.32
	c2.29-3.576,3.598-9.408,5.761-15.84c2.861-8.51,9.068-19.201-0.48-21.6c3.868-1.896,13.099-0.979,17.76-0.48
	c0.166,2.725-3.742,1.377-4.8,2.879c-5.916,4.871-7.94,13.811-11.04,23.041c-4.412,13.143-8.788,26.453-12.96,38.879
	C1438.862-580.014,1435.444-567.66,1423.798-564.973z"/>
<path fill-rule="evenodd" clip-rule="evenodd" fill="#FFFFFF" d="M1297.559-659.533c0.319,0,0.64,0,0.96,0c0,3.52,0,7.041,0,10.561
	c6.899-4.559,15.848-14.572,26.88-7.68c-1.181,3.459-2.681,6.6-3.84,10.08c-6.672-5.633-18.576-5.877-23.04,1.92
	c1.067,11.412-2.592,27.551,2.88,34.559c1.409,0.99,5.323-0.521,5.76,1.441c-0.381,2.605-4.136,1.379-6.24,1.439
	c-5.976,0.174-15.846,0.633-20.64-0.961c-0.466-2.865,4.192-0.607,5.28-1.92c0.279-0.562,1.725-0.666,2.399-1.92
	c1.951-3.623,2.279-36.09,0-40.799c-1.592-3.289-5.85-1.809-9.12-3.84c1.275-2.354,5.451-1.666,8.641-1.92
	c3.239-0.26,7.082-0.195,9.6-0.961C1297.238-659.533,1297.398-659.533,1297.559-659.533z"/>
<path fill-rule="evenodd" clip-rule="evenodd" fill="#FFFFFF" d="M1278.838-638.412c-12.479,0-24.96,0-37.439,0
	c-0.338,15.555,9.067,32.461,24,29.279c4.369-0.932,7.528-4.734,10.56-6.24c-0.806,6.697-7.316,8.498-12,9.119
	c-15.389,2.047-30.227-6.574-32.16-21.119c-2.348-17.668,8.991-34.111,28.801-31.68
	C1270.979-657.779,1278.656-651.053,1278.838-638.412z M1241.878-640.812c9.28,0,18.561,0,27.84,0
	C1272.391-661.699,1239.372-661.105,1241.878-640.812z"/>
<path fill-rule="evenodd" clip-rule="evenodd" fill="#FFFFFF" d="M1357.078-659.053c-0.317,4.803,0.637,10.877-0.479,14.879
	c-4.685-1.939-3.188-7.387-7.2-10.559c-7.23-5.717-21.715,0.48-14.4,10.08c6.7,8.791,27.365,6.41,24.96,25.439
	c-0.993,7.863-8.481,14.17-18.72,12.959c-3.354-0.395-6.81-3.74-10.08-3.359c-2.848,0.332-1.654,1.871-4.8,3.359
	c-1.893-3.551-0.979-12.455-0.48-16.799c3.548,1.217,3.397,4.91,4.801,7.199c2.159,3.523,6.412,9.135,15.84,7.201
	c4.548-0.934,7.834-5.801,6.239-11.521c-2.757-9.891-33.984-10.822-25.92-30.238c2.54-6.115,10.052-9.605,17.761-8.641
	c2.118,0.264,4.626,2.129,7.199,1.92C1354.671-657.367,1353.316-659.162,1357.078-659.053z"/>
<path fill-rule="evenodd" clip-rule="evenodd" fill="#FFFFFF" d="M1382.038-659.053c0,6.107,0,14.881,0,24.48
	c0,7.848-1.696,19.49,1.44,23.039c2.066,2.338,5.005,0.84,7.2,2.881c-0.393,2.613-4.201,1.375-6.24,1.439
	c-6.252,0.197-16.526,0.615-21.601-0.961c1.402-2.918,8.025-0.613,9.12-3.84c0.797-4.738,0.48-12.887,0.48-21.6
	c0-7.201,1.568-17.184-1.44-20.16c-2.466-2.439-5.589-0.109-8.16-2.4c0.551-2.268,4.062-1.689,6.24-1.92
	C1373.149-658.521,1377.695-658.928,1382.038-659.053z"/>
<path fill-rule="evenodd" clip-rule="evenodd" fill="#FFFFFF" d="M1204.918-657.133c-1.061,3.025-4.596,2.131-5.279,5.279
	c-0.902,4.154,4.061,11.1,6.239,16.32c2.571,6.16,4.333,11.885,6.24,15.84c1.966-3.805,3.798-9.424,6.24-15.84
	c1.95-5.123,6.593-12.527,5.28-16.801c-0.947-3.08-4.24-1.816-6.24-4.318c4.026-1.896,13.419-0.977,18.24-0.48
	c-1.27,2.928-4.609,2.086-6.721,3.84c-4.41,3.666-7.715,17.502-10.08,23.52c-3.481,8.861-6.025,17.51-10.08,23.52
	c-3.465-2.631-4.585-7.574-6.239-11.52c-4.992-11.902-9.49-26.045-16.32-36.959c-1.613-0.947-5.084-0.037-5.76-1.92
	C1186.534-658.559,1198.026-657.623,1204.918-657.133z"/>
<path fill-rule="evenodd" clip-rule="evenodd" fill="none" d="M1269.718-640.812c-9.279,0-18.56,0-27.84,0
	C1239.372-661.105,1272.391-661.699,1269.718-640.812z"/>
<path fill-rule="evenodd" clip-rule="evenodd" fill="#FFFFFF" d="M37.52,1.588c-5.059,3.517-9.933,10.323-9.933,19.051
	c0,15.01,12.865,22.086,13.84,36.637c0.471,7.019-2.704,13.577-6.676,18.561c-1.875,0.03-3.479-0.211-4.885-0.649
	c-0.116-1.183,0.858-1.965,1.302-2.932c1.468-3.19,2.931-6.986,2.931-11.723c0-14.546-13.698-20.143-13.841-35.009
	C20.147,13.887,27.345,4.884,37.52,1.588z"/>
<path fill-rule="evenodd" clip-rule="evenodd" fill="#FFFFFF" d="M2.836,30.734c0.158,0.005,0.126,0.198,0.163,0.325
	c-0.965,10.561,3.08,16.602,7.979,21.982c4.138,4.543,9.932,8.964,8.955,18.235C9.545,65.615,0.744,55.095,1.697,37.898
	C1.838,35.339,2.412,33.282,2.836,30.734z"/>
<path fill-rule="evenodd" clip-rule="evenodd" fill="#FFFFFF" d="M41.915,37.41c9.716-0.381,20.137-0.055,30.124-0.164
	c1.68,12.771-3.164,22.513-10.098,28.658C55.876,71.282,48.152,75.455,38.332,76c-0.242-0.29,0.65-1.239,1.14-1.791
	c3.621-4.066,7.616-9.692,8.142-16.934c0.607-8.356-2.698-13.849-5.535-19.539C42.104,37.546,42.042,37.444,41.915,37.41z"/>
<path fill-rule="evenodd" clip-rule="evenodd" fill="#FFFFFF" d="M22.539,7.448c0.323,0.483-0.909,0.823-1.466,1.304
	c-4.035,3.478-7.816,10.467-7.816,17.911c0,14.223,12.481,21.057,15.632,32.565c1.421,5.194,0.099,10.999-2.117,15.144
	c-1.718-0.453-3.244-1.099-4.722-1.791c3.75-9.155-2.583-16.702-6.839-22.634c-3.354-4.674-7.24-10.135-7.653-17.586
	C6.888,20.253,13.794,11.935,22.539,7.448z"/>
</svg>
